<svg width="24" height="21" viewBox="0 0 24 21" fill="none" xmlns="http://www.w3.org/2000/svg">
<path d="M1.72949 3.31365H4.64841L6.60408 13.6396C6.67081 13.9947 6.85358 14.3136 7.1204 14.5406C7.38722 14.7676 7.72108 14.8882 8.06354 14.8812H15.1565C15.499 14.8882 15.8328 14.7676 16.0997 14.5406C16.3665 14.3136 16.5492 13.9947 16.616 13.6396L17.7835 7.16951H5.37814M20.7029 1V5.62704M22.8918 3.31348H18.5134M8.29706 18.7371C8.29706 19.163 7.97035 19.5083 7.56733 19.5083C7.16431 19.5083 6.8376 19.163 6.8376 18.7371C6.8376 18.3112 7.16431 17.9659 7.56733 17.9659C7.97035 17.9659 8.29706 18.3112 8.29706 18.7371ZM16.3241 18.7371C16.3241 19.163 15.9974 19.5083 15.5943 19.5083C15.1913 19.5083 14.8646 19.163 14.8646 18.7371C14.8646 18.3112 15.1913 17.9659 15.5943 17.9659C15.9974 17.9659 16.3241 18.3112 16.3241 18.7371Z" stroke="#262524" stroke-width="2" stroke-linecap="round" stroke-linejoin="round"/>
</svg>
