<svg width="24" height="24" viewBox="0 0 24 24" fill="none" xmlns="http://www.w3.org/2000/svg">
<path d="M16.149 2.00342C16.9294 1.97648 17.7072 2.10884 18.4348 2.39243C19.1624 2.67602 19.8245 3.10489 20.3809 3.65287C20.9172 4.20919 21.3365 4.86737 21.6141 5.58852C21.8917 6.30966 22.0219 7.07914 21.997 7.85146V16.1487C21.997 17.8814 21.4305 19.3726 20.3476 20.4223C19.1987 21.4829 17.6784 22.0485 16.1157 21.9967H7.88514C6.33547 22.0447 4.82953 21.4789 3.69491 20.4223C3.13247 19.8589 2.69207 19.1858 2.40112 18.4448C2.11018 17.7038 1.97494 16.9109 2.00382 16.1154V7.85146C2.00382 4.33597 4.33636 2.00342 7.85182 2.00342H16.149ZM16.1906 3.86113H7.88514C6.67722 3.86113 5.63591 4.21935 4.94448 4.90245C4.57502 5.29598 4.2887 5.75996 4.10262 6.26665C3.91655 6.77335 3.83454 7.31236 3.86152 7.85146V16.1154C3.86152 17.3649 4.21973 18.3646 4.94448 19.0977C5.75281 19.8126 6.80704 20.1859 7.88514 20.139H16.1157C17.1938 20.1859 18.248 19.8126 19.0563 19.0977C19.4444 18.7137 19.7484 18.2534 19.9492 17.7457C20.15 17.2381 20.2431 16.6943 20.2226 16.1487V7.85146C20.2495 6.77905 19.8616 5.73761 19.1396 4.9441C18.7461 4.57464 18.2822 4.28831 17.7754 4.10223C17.2688 3.91616 16.7297 3.83416 16.1906 3.86113ZM12.0004 6.80182C14.8244 6.80182 17.1653 9.13437 17.1653 11.9668C17.1653 13.3365 16.6212 14.6503 15.6526 15.6189C14.6839 16.5875 13.3702 17.1317 12.0004 17.1317C10.6306 17.1317 9.31687 16.5875 8.34827 15.6189C7.37966 14.6503 6.8355 13.3365 6.8355 11.9668C6.8355 10.597 7.37966 9.28321 8.34827 8.31459C9.31687 7.34598 10.6306 6.80182 12.0004 6.80182ZM12.0004 8.6512C11.1246 8.65558 10.286 9.00542 9.6667 9.6247C9.04742 10.244 8.69758 11.0826 8.6932 11.9584C8.69758 12.8342 9.04742 13.6728 9.6667 14.2921C10.286 14.9114 11.1246 15.2612 12.0004 15.2656C12.8762 15.2612 13.7148 14.9114 14.3341 14.2921C14.9534 13.6728 15.3032 12.8342 15.3076 11.9584C15.3032 11.0826 14.9534 10.244 14.3341 9.6247C13.7148 9.00542 12.8762 8.65558 12.0004 8.6512ZM17.3652 5.51058C17.6746 5.51058 17.9712 5.63346 18.1899 5.85217C18.4086 6.07089 18.5315 6.36754 18.5315 6.67686C18.5315 6.98618 18.4086 7.28282 18.1899 7.50154C17.9712 7.72026 17.6746 7.84313 17.3652 7.84313C17.0559 7.84313 16.7593 7.72026 16.5405 7.50154C16.3218 7.28282 16.199 6.98618 16.199 6.67686C16.199 6.36754 16.3218 6.07089 16.5405 5.85217C16.7593 5.63346 17.0559 5.51058 17.3652 5.51058Z" fill="#888888"/>
</svg>
