<svg width="122" height="32" viewBox="0 0 122 32" fill="none" xmlns="http://www.w3.org/2000/svg">
<path d="M37.7637 22V10.2361H41.1542L44.3049 16.9828C44.3849 17.154 44.4876 17.3938 44.6132 17.702C44.7387 17.9988 44.8643 18.307 44.9899 18.6267C45.1269 18.9463 45.2525 19.2431 45.3666 19.5171H45.4693C45.5721 19.2773 45.6862 19.0034 45.8118 18.6951C45.9374 18.3869 46.063 18.0844 46.1885 17.7876C46.3255 17.4794 46.4397 17.2225 46.531 17.017L49.6818 10.2361H53.0209V22H50.7948V14.6197C50.7948 14.4142 50.7948 14.1859 50.7948 13.9348C50.8062 13.6836 50.8176 13.4325 50.829 13.1813C50.8405 12.9302 50.8519 12.7133 50.8633 12.5307H50.7263C50.6692 12.7019 50.595 12.9017 50.5037 13.13C50.4124 13.3583 50.3153 13.5866 50.2126 13.8149C50.1213 14.0432 50.0356 14.243 49.9557 14.4142L46.4454 22H44.2707L40.7432 14.4142C40.6405 14.1973 40.5378 13.9747 40.435 13.7464C40.3323 13.5067 40.2409 13.2841 40.161 13.0786C40.0925 12.8617 40.0298 12.6791 39.9727 12.5307H39.8357C39.8471 12.6905 39.8528 12.8902 39.8528 13.13C39.8642 13.3697 39.8699 13.6209 39.8699 13.8834C39.8813 14.1346 39.8871 14.38 39.8871 14.6197V22H37.7637ZM56.5261 22V10.2361H58.7351V22H56.5261ZM62.2451 22V10.2361H64.4541V20.0479H71.8686V22H62.2451ZM72.9173 22L78.8592 10.2361H81.3763L87.3182 22H84.8867L83.6195 19.4657H76.4619L75.1947 22H72.9173ZM77.3523 17.6506H82.7291L81.1708 14.4485C81.1138 14.3229 81.0281 14.146 80.914 13.9177C80.8112 13.6779 80.7028 13.4325 80.5886 13.1813C80.4859 12.9302 80.3889 12.7076 80.2975 12.5135C80.2062 12.3195 80.1434 12.1996 80.1092 12.1539H79.9722C79.8695 12.3822 79.7496 12.6505 79.6126 12.9587C79.4756 13.2555 79.3443 13.5409 79.2188 13.8149C79.0932 14.0889 78.9904 14.3058 78.9105 14.4656L77.3523 17.6506ZM89.5693 22V10.2361H91.6755L98.6106 17.1027C98.7475 17.2282 98.9074 17.3938 99.09 17.5992C99.2841 17.7933 99.4782 17.9931 99.6722 18.1986C99.8777 18.404 100.049 18.5867 100.186 18.7465H100.323C100.312 18.5182 100.3 18.2328 100.289 17.8903C100.277 17.5479 100.272 17.2568 100.272 17.017V10.2361H102.395V22H100.357L93.405 15.0649C93.1196 14.7796 92.8228 14.4713 92.5146 14.1403C92.2063 13.8092 91.9609 13.5467 91.7782 13.3526H91.6584C91.6698 13.5238 91.6755 13.7921 91.6755 14.1574C91.6869 14.5227 91.6926 14.9165 91.6926 15.3389V22H89.5693ZM112.893 22.2055C111.352 22.2055 110.022 21.9715 108.903 21.5034C107.784 21.0354 106.923 20.3504 106.318 19.4486C105.712 18.5353 105.41 17.428 105.41 16.1266C105.41 14.8024 105.712 13.6951 106.318 12.8046C106.923 11.9028 107.784 11.2178 108.903 10.7498C110.022 10.2703 111.352 10.0306 112.893 10.0306C114.446 10.0306 115.781 10.2703 116.9 10.7498C118.03 11.2178 118.892 11.9028 119.486 12.8046C120.091 13.6951 120.393 14.8024 120.393 16.1266C120.393 17.428 120.091 18.5353 119.486 19.4486C118.892 20.3504 118.03 21.0354 116.9 21.5034C115.781 21.9715 114.446 22.2055 112.893 22.2055ZM112.91 20.339C113.652 20.339 114.337 20.2591 114.965 20.0993C115.604 19.9395 116.158 19.694 116.626 19.363C117.105 19.0319 117.476 18.6095 117.739 18.0958C118.002 17.5821 118.133 16.9828 118.133 16.2978V15.904C118.133 15.2305 118.002 14.6426 117.739 14.1403C117.476 13.6266 117.105 13.2042 116.626 12.8731C116.158 12.5421 115.604 12.2966 114.965 12.1368C114.337 11.977 113.652 11.8971 112.91 11.8971C112.157 11.8971 111.46 11.977 110.821 12.1368C110.193 12.2966 109.639 12.5421 109.16 12.8731C108.692 13.2042 108.327 13.6266 108.064 14.1403C107.813 14.6426 107.687 15.2305 107.687 15.904V16.2978C107.687 16.9828 107.813 17.5821 108.064 18.0958C108.327 18.6095 108.692 19.0319 109.16 19.363C109.639 19.694 110.193 19.9395 110.821 20.0993C111.46 20.2591 112.157 20.339 112.91 20.339Z" fill="white"/>
<rect width="32" height="32" rx="2" fill="white"/>
<path fill-rule="evenodd" clip-rule="evenodd" d="M8 10L9.84535 9.46582L16 19.205L22.1547 9.46582L24 10V22H22V13.4544L16.8454 21.6112H15.1547L10 13.4544V22H8V10Z" fill="#1A1A1A"/>
</svg>
