<svg width="171" height="171" viewBox="0 0 171 171" fill="none" xmlns="http://www.w3.org/2000/svg">
<path d="M157.701 91.5748C157.701 90.8656 157.772 90.1918 157.913 89.5535C158.055 88.9152 158.28 88.3479 158.587 87.8514C158.906 87.3668 159.302 86.9827 159.775 86.699C160.26 86.4271 160.845 86.2912 161.53 86.2912C161.589 86.2912 161.649 86.2912 161.708 86.2912C161.779 86.2912 161.832 86.2971 161.867 86.3089V88.933C161.832 88.9211 161.784 88.9152 161.725 88.9152C161.666 88.9152 161.613 88.9152 161.566 88.9152C161.188 88.9152 160.868 89.0157 160.608 89.2167C160.348 89.4294 160.153 89.7367 160.023 90.1386C159.893 90.5405 159.828 91.0074 159.828 91.5393C159.828 91.8821 159.846 92.1835 159.881 92.4435C159.929 92.7154 159.988 92.9518 160.059 93.1527C160.141 93.3655 160.236 93.5369 160.342 93.6669C160.449 93.8088 160.573 93.9092 160.715 93.9683C160.857 94.0392 161.016 94.0747 161.193 94.0747C161.513 94.0747 161.773 93.9683 161.974 93.7556C162.175 93.5546 162.346 93.2709 162.488 92.9045C162.63 92.5499 162.76 92.148 162.878 91.6989C162.996 91.2497 163.114 90.7887 163.232 90.3159C163.362 89.8431 163.516 89.3821 163.693 88.933C163.883 88.4838 164.107 88.0819 164.367 87.7273C164.627 87.3727 164.958 87.089 165.36 86.8763C165.762 86.6635 166.247 86.5571 166.814 86.5571C167.417 86.5571 167.937 86.6812 168.374 86.9295C168.811 87.1895 169.172 87.55 169.456 88.011C169.739 88.472 169.946 89.0039 170.076 89.6067C170.218 90.2095 170.289 90.8656 170.289 91.5748C170.289 92.2367 170.218 92.8631 170.076 93.4541C169.946 94.0452 169.733 94.5652 169.438 95.0144C169.142 95.4636 168.77 95.8123 168.321 96.0605C167.872 96.3205 167.34 96.4505 166.725 96.4505H166.512V93.8797H166.654C166.973 93.8797 167.245 93.7851 167.47 93.596C167.694 93.4069 167.872 93.1409 168.002 92.7981C168.132 92.4554 168.197 92.0535 168.197 91.5925C168.197 91.096 168.15 90.6705 168.055 90.3159C167.96 89.9731 167.819 89.7072 167.629 89.5181C167.452 89.3408 167.239 89.2521 166.991 89.2521C166.708 89.2521 166.471 89.3526 166.282 89.5535C166.105 89.7663 165.945 90.05 165.803 90.4046C165.673 90.771 165.555 91.1788 165.449 91.6279C165.342 92.0771 165.224 92.5381 165.094 93.0109C164.964 93.4837 164.81 93.9447 164.633 94.3938C164.456 94.843 164.231 95.2449 163.959 95.5995C163.699 95.9541 163.374 96.2378 162.984 96.4505C162.594 96.6633 162.127 96.7697 161.584 96.7697C160.65 96.7697 159.899 96.5451 159.332 96.0959C158.764 95.6468 158.351 95.0321 158.091 94.252C157.831 93.4719 157.701 92.5795 157.701 91.5748Z" fill="#BF8C4E"/>
<path d="M156.99 97.1153L168.266 103.65L167.753 106.872L155.005 109.582L155.454 106.763L157.954 106.281L158.788 101.046L156.56 99.8118L156.99 97.1153ZM160.769 102.133L160.175 105.863L163.305 105.266C163.44 105.24 163.601 105.205 163.788 105.163C163.984 105.135 164.198 105.103 164.431 105.068C164.664 105.033 164.891 104.998 165.112 104.961C165.344 104.938 165.551 104.911 165.736 104.881L165.752 104.776C165.54 104.682 165.289 104.564 165.001 104.423C164.724 104.283 164.453 104.144 164.187 104.006C163.934 103.87 163.724 103.759 163.558 103.673L160.769 102.133Z" fill="#BF8C4E"/>
<path d="M153.315 111.027L164.781 115.086L163.899 117.576L154.556 114.269L152.509 120.052L150.386 119.301L153.315 111.027Z" fill="#BF8C4E"/>
<path d="M149.258 119.948L160.077 125.505L155.637 134.148L153.713 133.16L156.937 126.883L154.524 125.643L151.673 131.195L149.764 130.214L152.616 124.663L149.982 123.31L146.709 129.682L144.77 128.685L149.258 119.948Z" fill="#BF8C4E"/>
<path d="M137.213 141.523C137.542 141.183 137.907 140.952 138.306 140.83C138.714 140.715 139.124 140.709 139.535 140.812C139.937 140.923 140.308 141.143 140.648 141.473C140.995 141.81 141.23 142.179 141.353 142.578C141.468 142.986 141.474 143.396 141.371 143.807C141.268 144.218 141.052 144.593 140.723 144.932C140.385 145.28 140.012 145.511 139.605 145.625C139.197 145.74 138.787 145.746 138.376 145.643C137.965 145.541 137.586 145.32 137.238 144.983C136.899 144.653 136.672 144.285 136.557 143.877C136.443 143.469 136.437 143.059 136.54 142.648C136.651 142.245 136.875 141.87 137.213 141.523Z" fill="#BF8C4E"/>
<path d="M117.851 150.509C118.455 150.137 119.066 149.844 119.683 149.63C120.301 149.416 120.902 149.31 121.486 149.311C122.066 149.329 122.601 149.465 123.09 149.719C123.576 149.989 123.998 150.416 124.358 150.999C124.389 151.05 124.42 151.1 124.451 151.15C124.488 151.211 124.511 151.259 124.519 151.296L122.285 152.672C122.277 152.635 122.257 152.592 122.226 152.541C122.195 152.491 122.167 152.446 122.142 152.406C121.944 152.084 121.691 151.864 121.383 151.748C121.066 151.639 120.702 151.634 120.292 151.734C119.881 151.834 119.45 152.023 118.997 152.302C118.705 152.482 118.457 152.655 118.255 152.822C118.048 153.004 117.878 153.179 117.744 153.344C117.606 153.526 117.51 153.697 117.455 153.856C117.39 154.021 117.369 154.179 117.393 154.331C117.407 154.489 117.461 154.643 117.554 154.794C117.721 155.066 117.948 155.231 118.234 155.291C118.511 155.357 118.842 155.354 119.229 155.283C119.605 155.217 120.015 155.117 120.46 154.982C120.904 154.848 121.359 154.706 121.823 154.559C122.294 154.422 122.767 154.311 123.243 154.227C123.724 154.152 124.184 154.133 124.623 154.168C125.061 154.204 125.476 154.337 125.868 154.567C126.26 154.798 126.604 155.155 126.902 155.638C127.218 156.151 127.385 156.659 127.403 157.162C127.411 157.67 127.293 158.166 127.049 158.65C126.806 159.133 126.461 159.588 126.016 160.015C125.577 160.452 125.056 160.856 124.452 161.228C123.888 161.575 123.318 161.843 122.74 162.032C122.168 162.231 121.614 162.323 121.077 162.307C120.539 162.291 120.047 162.157 119.6 161.904C119.143 161.658 118.754 161.273 118.431 160.75L118.32 160.569L120.509 159.221L120.583 159.342C120.751 159.613 120.974 159.795 121.252 159.887C121.531 159.979 121.851 159.991 122.211 159.922C122.571 159.853 122.947 159.698 123.34 159.456C123.762 159.195 124.1 158.932 124.352 158.666C124.594 158.405 124.747 158.145 124.808 157.885C124.866 157.641 124.83 157.413 124.7 157.202C124.551 156.96 124.342 156.812 124.072 156.756C123.798 156.717 123.472 156.73 123.096 156.795C122.716 156.876 122.307 156.989 121.868 157.134C121.43 157.279 120.976 157.42 120.505 157.558C120.034 157.695 119.561 157.806 119.086 157.89C118.61 157.975 118.15 157.994 117.706 157.949C117.267 157.913 116.855 157.785 116.47 157.565C116.084 157.344 115.749 157.002 115.463 156.539C114.974 155.744 114.771 154.987 114.856 154.269C114.941 153.55 115.248 152.876 115.776 152.245C116.304 151.615 116.995 151.036 117.851 150.509Z" fill="#BF8C4E"/>
<path d="M112.735 152.772L113.064 165.801L110.05 167.049L101.072 157.603L103.709 156.511L105.427 158.39L110.325 156.361L110.212 153.817L112.735 152.772ZM110.435 158.618L106.946 160.063L109.092 162.418C109.185 162.52 109.299 162.639 109.432 162.776C109.559 162.928 109.698 163.094 109.85 163.275C110.001 163.455 110.15 163.63 110.297 163.799C110.438 163.984 110.569 164.147 110.692 164.288L110.79 164.248C110.759 164.018 110.728 163.743 110.698 163.422C110.672 163.113 110.649 162.81 110.627 162.511C110.611 162.224 110.596 161.987 110.582 161.801L110.435 158.618Z" fill="#BF8C4E"/>
<path d="M98.9055 156.88L101.412 168.782L98.827 169.327L96.7845 159.628L90.7815 160.893L90.3175 158.689L98.9055 156.88Z" fill="#BF8C4E"/>
<path d="M89.0625 158.064L89.9532 170.194L80.2632 170.905L80.1048 168.748L87.1424 168.231L86.9438 165.526L80.7195 165.983L80.5624 163.843L86.7867 163.386L86.5699 160.433L79.4261 160.958L79.2664 158.783L89.0625 158.064Z" fill="#BF8C4E"/>
<path d="M64.1832 158.956C64.6439 159.062 65.0303 159.254 65.3422 159.532C65.6514 159.822 65.8685 160.169 65.9935 160.574C66.107 160.976 66.1106 161.408 66.0044 161.868C65.8955 162.34 65.702 162.733 65.4238 163.044C65.1342 163.354 64.7869 163.571 64.382 163.696C63.9772 163.821 63.5444 163.83 63.0837 163.724C62.6115 163.615 62.2207 163.416 61.9115 163.126C61.6022 162.836 61.3851 162.489 61.2601 162.084C61.1351 161.679 61.1271 161.241 61.236 160.769C61.3422 160.308 61.5402 159.923 61.8298 159.614C62.1195 159.305 62.4667 159.087 62.8716 158.962C63.2738 158.849 63.711 158.847 64.1832 158.956Z" fill="#BF8C4E"/>
<path d="M46.522 147.021C47.1517 147.348 47.7172 147.721 48.2186 148.14C48.72 148.56 49.1204 149.02 49.4197 149.522C49.7031 150.028 49.8619 150.556 49.8962 151.107C49.9145 151.662 49.7659 152.244 49.4504 152.853C49.4232 152.905 49.396 152.958 49.3688 153.01C49.3362 153.073 49.3065 153.118 49.2797 153.144L46.95 151.936C46.9768 151.91 47.0038 151.871 47.031 151.818C47.0582 151.766 47.0827 151.719 47.1044 151.677C47.2785 151.341 47.3362 151.011 47.2775 150.688C47.2082 150.359 47.0251 150.045 46.7282 149.744C46.4312 149.444 46.0466 149.171 45.5744 148.926C45.2701 148.769 44.9943 148.646 44.7471 148.558C44.484 148.474 44.2469 148.418 44.0359 148.389C43.8089 148.364 43.6132 148.369 43.4488 148.404C43.2739 148.433 43.1276 148.497 43.0099 148.596C42.8816 148.689 42.7767 148.814 42.6951 148.972C42.5483 149.255 42.523 149.535 42.6195 149.811C42.7054 150.082 42.8784 150.365 43.1384 150.659C43.388 150.948 43.6849 151.249 44.0293 151.561C44.3737 151.872 44.7285 152.189 45.0939 152.512C45.4538 152.845 45.7924 153.193 46.1096 153.557C46.4213 153.932 46.6748 154.316 46.8699 154.71C47.0651 155.105 47.1646 155.529 47.1686 155.984C47.1725 156.438 47.0439 156.918 46.7828 157.421C46.5054 157.956 46.1559 158.361 45.7342 158.635C45.3021 158.904 44.8161 159.058 44.2763 159.098C43.7365 159.137 43.1691 159.076 42.574 158.914C41.9736 158.763 41.3585 158.524 40.7289 158.197C40.1412 157.893 39.6176 157.542 39.1582 157.144C38.6934 156.756 38.3295 156.328 38.0667 155.859C37.804 155.39 37.6657 154.899 37.6521 154.386C37.6279 153.867 37.7572 153.335 38.0401 152.79L38.138 152.601L40.4205 153.784L40.3552 153.91C40.2083 154.193 40.1672 154.478 40.2317 154.764C40.2963 155.051 40.4508 155.331 40.6953 155.604C40.9398 155.877 41.2667 156.12 41.6759 156.332C42.1167 156.56 42.5162 156.714 42.8746 156.793C43.2224 156.867 43.5238 156.864 43.7787 156.783C44.0177 156.707 44.1944 156.559 44.3086 156.338C44.4391 156.087 44.4587 155.83 44.3674 155.57C44.2601 155.315 44.0816 155.043 43.8321 154.753C43.5666 154.469 43.259 154.177 42.9092 153.876C42.5593 153.574 42.2045 153.257 41.8445 152.924C41.4846 152.591 41.1461 152.243 40.8289 151.879C40.5117 151.515 40.2582 151.13 40.0685 150.726C39.8734 150.332 39.7711 149.912 39.7617 149.468C39.7523 149.024 39.8728 148.561 40.123 148.078C40.5527 147.249 41.0975 146.686 41.7574 146.389C42.4173 146.092 43.1533 146.007 43.9656 146.135C44.7779 146.264 45.63 146.559 46.522 147.021Z" fill="#BF8C4E"/>
<path d="M41.9604 143.835L30.9689 150.837L28.3448 148.899L31.8062 136.335L34.1023 138.031L33.379 140.472L37.6432 143.622L39.7641 142.213L41.9604 143.835ZM35.7659 144.88L32.7282 142.637L31.8178 145.689C31.7786 145.822 31.7349 145.981 31.6866 146.165C31.6217 146.353 31.5511 146.558 31.4747 146.78C31.3984 147.003 31.3255 147.221 31.2561 147.435C31.1702 147.65 31.0984 147.847 31.0406 148.025L31.1261 148.088C31.3071 147.942 31.5269 147.774 31.7856 147.583C32.0372 147.402 32.2853 147.225 32.5299 147.053C32.7675 146.89 32.9628 146.755 33.1156 146.648L35.7659 144.88Z" fill="#BF8C4E"/>
<path d="M31.2747 134.129L22.3976 142.444L20.5917 140.515L27.8253 133.74L23.6316 129.263L25.275 127.723L31.2747 134.129Z" fill="#BF8C4E"/>
<path d="M25.1749 126.367L15.2612 133.414L9.63216 125.494L11.3952 124.241L15.4835 129.993L17.6945 128.421L14.0788 123.334L15.8274 122.092L19.4432 127.178L21.8566 125.463L17.7067 119.625L19.4842 118.361L25.1749 126.367Z" fill="#BF8C4E"/>
<path d="M11.6046 105.872C11.754 106.321 11.7912 106.751 11.7162 107.162C11.6301 107.577 11.4468 107.943 11.1664 108.26C10.8822 108.567 10.5158 108.795 10.0672 108.944C9.60734 109.097 9.17187 109.136 8.76074 109.061C8.34587 108.975 7.97963 108.792 7.66203 108.511C7.34442 108.231 7.11095 107.866 6.96161 107.418C6.80854 106.958 6.77507 106.521 6.86121 106.106C6.94734 105.691 7.13064 105.325 7.4111 105.007C7.69156 104.689 8.0617 104.454 8.52152 104.301C8.97012 104.152 9.40185 104.12 9.81671 104.206C10.2316 104.292 10.5978 104.476 10.9154 104.756C11.2218 105.04 11.4515 105.412 11.6046 105.872Z" fill="#BF8C4E"/>
<path d="M12.5797 84.5293C12.6289 85.2368 12.6049 85.9138 12.5077 86.5604C12.4104 87.207 12.2258 87.7886 11.9536 88.3051C11.6689 88.8107 11.3005 89.2214 10.8485 89.5372C10.3839 89.8421 9.80969 90.0183 9.12578 90.0658C9.06682 90.0699 9.00787 90.074 8.94891 90.0781C8.87816 90.083 8.82469 90.0808 8.78849 90.0715L8.60642 87.4538C8.64262 87.4631 8.69019 87.4657 8.74915 87.4616C8.80811 87.4575 8.86117 87.4538 8.90834 87.4505C9.28567 87.4243 9.59707 87.3019 9.84254 87.0834C10.0872 86.8531 10.2604 86.533 10.3623 86.1231C10.4641 85.7132 10.4965 85.2429 10.4596 84.7123C10.4358 84.3703 10.3972 84.0708 10.3438 83.8139C10.2778 83.546 10.2024 83.3142 10.1177 83.1187C10.0204 82.9122 9.91422 82.7478 9.79908 82.6254C9.68311 82.4913 9.55233 82.3997 9.40673 82.3506C9.26031 82.2897 9.09866 82.2654 8.92179 82.2777C8.60341 82.2998 8.35138 82.424 8.16568 82.6502C7.97917 82.8646 7.82787 83.1595 7.7118 83.5349C7.5949 83.8984 7.49308 84.3084 7.40633 84.7647C7.31958 85.2209 7.23365 85.689 7.14854 86.1689C7.05163 86.6496 6.93033 87.1201 6.78462 87.5805C6.62712 88.0417 6.43096 88.4582 6.19615 88.83C5.96134 89.2018 5.65086 89.5077 5.26471 89.7479C4.87855 89.988 4.40248 90.1277 3.83648 90.1671C3.23511 90.2089 2.70767 90.1212 2.25416 89.9039C1.79983 89.6749 1.41517 89.3402 1.10019 88.9C0.785202 88.4599 0.541943 87.9436 0.370409 87.3512C0.187083 86.7597 0.0708168 86.1102 0.021609 85.4027C-0.0243183 84.7424 0.00296414 84.1125 0.103456 83.5131C0.192158 82.9145 0.368321 82.3809 0.631946 81.9123C0.895571 81.4437 1.24281 81.07 1.67367 80.7912C2.10371 80.5006 2.62531 80.334 3.23847 80.2914L3.45072 80.2766L3.6291 82.8413L3.4876 82.8511C3.16923 82.8733 2.90458 82.9865 2.69366 83.1907C2.48274 83.395 2.32432 83.6726 2.2184 84.0236C2.11248 84.3745 2.07551 84.78 2.10749 85.2398C2.14194 85.7351 2.21863 86.1563 2.33756 86.5035C2.45568 86.8389 2.61563 87.0944 2.81742 87.2699C3.0066 87.4345 3.225 87.5082 3.47262 87.4909C3.75562 87.4712 3.98448 87.3546 4.1592 87.141C4.32131 86.9165 4.46082 86.6224 4.57771 86.2588C4.682 85.8843 4.77162 85.4692 4.84658 85.0138C4.92154 84.5583 5.00747 84.0903 5.10437 83.6096C5.20127 83.1289 5.32258 82.6584 5.46829 82.198C5.614 81.7376 5.81015 81.3211 6.05675 80.9485C6.29157 80.5767 6.59615 80.2711 6.97051 80.0318C7.34487 79.7925 7.80326 79.654 8.34567 79.6163C9.27721 79.5515 10.0416 79.7234 10.6387 80.1321C11.2359 80.5409 11.6912 81.1253 12.0048 81.8855C12.3183 82.6457 12.5099 83.527 12.5797 84.5293Z" fill="#BF8C4E"/>
<path d="M12.9083 78.8844L1.20785 73.1446L1.49684 69.8951L14.0265 66.3102L13.7737 69.1535L11.3125 69.8068L10.8429 75.0873L13.1501 76.1647L12.9083 78.8844ZM8.79122 74.1394L9.12576 70.3777L6.04534 71.1896C5.91164 71.2252 5.75335 71.2704 5.57047 71.3254C5.37685 71.3675 5.16505 71.4139 4.93507 71.4647C4.70509 71.5154 4.481 71.5667 4.26279 71.6185C4.03386 71.6575 3.82847 71.6985 3.64663 71.7417L3.63721 71.8476C3.85567 71.9264 4.11377 72.0265 4.41151 72.1479C4.69747 72.2683 4.97755 72.3881 5.25174 72.5074C5.51416 72.6257 5.73105 72.7221 5.90242 72.7967L8.79122 74.1394Z" fill="#BF8C4E"/>
<path d="M15.6298 64.659L3.91486 61.3888L4.62516 58.8443L14.1713 61.5091L15.8208 55.6004L17.9896 56.2058L15.6298 64.659Z" fill="#BF8C4E"/>
<path d="M19.1718 55.2503L8.02349 50.3871L11.9084 41.4814L13.891 42.3463L11.0695 48.8143L13.5559 49.8989L16.0513 44.1785L18.0177 45.0363L15.5223 50.7567L18.2363 51.9406L21.1003 45.3751L23.0992 46.2471L19.1718 55.2503Z" fill="#BF8C4E"/>
<path d="M29.6183 33.1448C29.3118 33.5048 28.9632 33.7591 28.5727 33.9078C28.1731 34.0488 27.7649 34.0815 27.3479 34.0059C26.9387 33.9214 26.5541 33.7258 26.1941 33.4192C25.8252 33.105 25.5663 32.7526 25.4177 32.3621C25.2766 31.9625 25.2439 31.5543 25.3195 31.1374C25.3951 30.7205 25.5862 30.332 25.8927 29.9721C26.2069 29.6031 26.5638 29.3481 26.9634 29.2071C27.3629 29.0661 27.7712 29.0333 28.1881 29.1089C28.605 29.1845 28.9979 29.3794 29.3669 29.6936C29.7269 30.0002 29.9773 30.3532 30.1184 30.7528C30.2594 31.1524 30.2921 31.5606 30.2165 31.9775C30.1319 32.3868 29.9325 32.7759 29.6183 33.1448Z" fill="#BF8C4E"/>
<path d="M48.1513 22.9918C47.5732 23.4026 46.983 23.7352 46.3806 23.9893C45.7781 24.2435 45.1856 24.3892 44.6029 24.4263C44.023 24.4469 43.4805 24.3467 42.9753 24.1257C42.473 23.8882 42.0232 23.4901 41.626 22.9313C41.5918 22.8831 41.5575 22.8349 41.5233 22.7868C41.4822 22.729 41.4562 22.6822 41.4453 22.6464L43.5841 21.1262C43.595 21.1619 43.6176 21.2039 43.6518 21.2521C43.6861 21.3002 43.7169 21.3436 43.7443 21.3821C43.9634 21.6904 44.2302 21.8923 44.5446 21.9879C44.8687 22.0766 45.2322 22.0575 45.6351 21.9306C46.038 21.8038 46.4562 21.5863 46.8897 21.2781C47.1691 21.0795 47.4045 20.8905 47.5959 20.7109C47.7901 20.5149 47.9486 20.3297 48.0713 20.1555C48.1968 19.9648 48.2817 19.7884 48.326 19.6264C48.38 19.4575 48.39 19.2981 48.356 19.1483C48.3316 18.9916 48.2681 18.841 48.1654 18.6965C47.9805 18.4363 47.7431 18.286 47.4533 18.2455C47.1731 18.1981 46.8425 18.2228 46.4617 18.3195C46.0905 18.4093 45.6876 18.5361 45.253 18.7C44.8184 18.8639 44.3742 19.0346 43.9204 19.2122C43.4597 19.3801 42.9949 19.522 42.5261 19.6377C42.0504 19.7438 41.5927 19.7935 41.1531 19.787C40.7134 19.7805 40.2904 19.6751 39.8842 19.4708C39.4779 19.2665 39.1104 18.9331 38.7817 18.4707C38.4325 17.9793 38.2323 17.4835 38.1813 16.9832C38.1399 16.4761 38.2248 15.9734 38.4362 15.4751C38.6476 14.9768 38.9613 14.5 39.3773 14.0448C39.7865 13.58 40.2801 13.1421 40.8582 12.7312C41.3977 12.3477 41.9494 12.0426 42.5133 11.8158C43.0704 11.5794 43.6175 11.4515 44.1548 11.4321C44.6921 11.4128 45.1921 11.5142 45.6546 11.7365C46.1268 11.952 46.5409 12.3102 46.897 12.8112L47.0203 12.9846L44.9248 14.474L44.8426 14.3584C44.6577 14.0983 44.4232 13.9315 44.1389 13.858C43.8546 13.7845 43.5351 13.7941 43.1804 13.8867C42.8257 13.9793 42.4605 14.1591 42.0847 14.4262C41.6801 14.7138 41.3606 14.9989 41.1264 15.2814C40.9018 15.5571 40.7672 15.8268 40.7226 16.0905C40.6808 16.3377 40.7318 16.5625 40.8756 16.7648C41.04 16.996 41.2588 17.1305 41.5322 17.1683C41.8083 17.1895 42.132 17.1552 42.5032 17.0654C42.8772 16.9591 43.2781 16.8192 43.7058 16.6457C44.1335 16.4721 44.5777 16.3014 45.0384 16.1335C45.4991 15.9655 45.9639 15.8237 46.4327 15.708C46.9015 15.5923 47.3592 15.5425 47.8058 15.5587C48.2454 15.5652 48.665 15.6658 49.0644 15.8604C49.4638 16.0551 49.821 16.374 50.136 16.8172C50.677 17.5783 50.9288 18.3202 50.8914 19.0429C50.854 19.7655 50.5927 20.4588 50.1075 21.1228C49.6223 21.7867 48.9702 22.4097 48.1513 22.9918Z" fill="#BF8C4E"/>
<path d="M53.4016 20.1821L52.2482 7.20081L55.1772 5.76425L64.7356 14.6233L62.1727 15.8803L60.3387 14.1138L55.579 16.4482L55.853 18.9798L53.4016 20.1821ZM55.3267 14.2023L58.7173 12.5393L56.4268 10.3253C56.3271 10.2294 56.2064 10.1174 56.0647 9.98949C55.9283 9.84572 55.7789 9.68863 55.6163 9.51822C55.4537 9.34781 55.2938 9.18271 55.1364 9.02292C54.9845 8.84731 54.8429 8.69292 54.7118 8.55976L54.6163 8.6066C54.6621 8.83426 54.7102 9.10687 54.7607 9.42444C54.8059 9.73139 54.8485 10.033 54.8885 10.3294C54.9233 10.6151 54.9532 10.8506 54.9783 11.0358L55.3267 14.2023Z" fill="#BF8C4E"/>
<path d="M66.4841 15.2824L63.1695 3.57993L65.7113 2.85999L68.4123 12.396L74.3147 10.7242L74.9283 12.8907L66.4841 15.2824Z" fill="#BF8C4E"/>
<path d="M76.2295 13.3892L74.5481 1.34309L84.171 0L84.47 2.14231L77.4811 3.11776L77.8561 5.80443L84.0372 4.94172L84.3338 7.06647L78.1527 7.92918L78.562 10.8617L85.6562 9.87153L85.9576 12.0314L76.2295 13.3892Z" fill="#BF8C4E"/>
<path d="M100.952 10.7151C100.486 10.6407 100.087 10.4756 99.7567 10.2195C99.4283 9.9518 99.1878 9.62029 99.0353 9.22498C98.8944 8.83152 98.8612 8.40133 98.9355 7.93441C99.0117 7.45581 99.1778 7.05137 99.4338 6.72109C99.7016 6.39267 100.033 6.1522 100.428 5.99969C100.824 5.84717 101.255 5.80808 101.722 5.8824C102.2 5.95858 102.604 6.13053 102.932 6.39825C103.261 6.66597 103.501 6.99748 103.654 7.39279C103.806 7.78811 103.844 8.22506 103.768 8.70366C103.694 9.17058 103.523 9.56826 103.255 9.89668C102.987 10.2251 102.656 10.4656 102.261 10.6181C101.867 10.7589 101.431 10.7913 100.952 10.7151Z" fill="#BF8C4E"/>
<path d="M119.672 21.4517C119.022 21.1681 118.433 20.8337 117.905 20.4485C117.376 20.0633 116.946 19.6306 116.614 19.1504C116.297 18.6641 116.103 18.1476 116.032 17.6008C115.977 17.0479 116.086 16.4573 116.361 15.8289C116.384 15.7747 116.408 15.7205 116.431 15.6664C116.46 15.6014 116.486 15.555 116.511 15.5272L118.917 16.5764C118.892 16.6042 118.867 16.6451 118.844 16.6993C118.82 16.7535 118.799 16.8022 118.78 16.8456C118.629 17.1923 118.593 17.525 118.673 17.8437C118.764 18.1671 118.968 18.4687 119.284 18.7486C119.601 19.0284 120.003 19.2747 120.49 19.4874C120.804 19.6244 121.088 19.7287 121.34 19.8002C121.608 19.8656 121.849 19.9059 122.061 19.9212C122.289 19.9305 122.484 19.9123 122.646 19.8668C122.819 19.826 122.96 19.7524 123.071 19.6461C123.193 19.5444 123.289 19.4123 123.36 19.2498C123.488 18.9573 123.494 18.6764 123.379 18.4071C123.276 18.1426 123.084 17.8721 122.805 17.5956C122.537 17.3238 122.22 17.0439 121.856 16.756C121.491 16.4681 121.116 16.1754 120.73 15.878C120.349 15.5698 119.988 15.2446 119.647 14.9025C119.311 14.5496 119.032 14.183 118.811 13.8029C118.59 13.4228 118.462 13.006 118.428 12.5526C118.394 12.0991 118.49 11.6124 118.717 11.0924C118.958 10.5398 119.28 10.1127 119.682 9.81113C120.095 9.51425 120.57 9.32795 121.106 9.25225C121.642 9.17655 122.212 9.19963 122.816 9.32149C123.426 9.43251 124.055 9.62981 124.705 9.91338C125.312 10.178 125.858 10.4935 126.343 10.8598C126.833 11.2153 127.224 11.6183 127.518 12.0687C127.811 12.5192 127.982 12.9999 128.03 13.5108C128.089 14.0265 127.995 14.566 127.75 15.1294L127.664 15.3244L125.308 14.2965L125.365 14.1665C125.492 13.8739 125.514 13.5869 125.431 13.3055C125.347 13.024 125.174 12.7552 124.912 12.4989C124.65 12.2427 124.308 12.0224 123.885 11.8381C123.43 11.6396 123.021 11.5128 122.658 11.4577C122.306 11.4073 122.006 11.431 121.757 11.5287C121.524 11.6203 121.357 11.7799 121.258 12.0074C121.144 12.2674 121.142 12.5243 121.251 12.778C121.375 13.0256 121.571 13.2852 121.839 13.557C122.123 13.8227 122.45 14.0941 122.819 14.3712C123.188 14.6483 123.563 14.941 123.945 15.2492C124.326 15.5574 124.687 15.8826 125.028 16.2247C125.369 16.5668 125.647 16.9333 125.864 17.3243C126.085 17.7044 126.215 18.1158 126.254 18.5584C126.293 19.001 126.204 19.4715 125.986 19.9698C125.613 20.8257 125.107 21.4239 124.468 21.7643C123.83 22.1048 123.101 22.2382 122.282 22.1647C121.463 22.0911 120.593 21.8534 119.672 21.4517Z" fill="#BF8C4E"/>
<path d="M124.409 24.2795L134.916 16.569L137.662 18.3303L135.035 31.0953L132.632 29.5541L133.193 27.0703L128.731 24.2081L126.707 25.7537L124.409 24.2795ZM130.521 22.8288L133.7 24.8678L134.407 21.7617C134.438 21.6268 134.471 21.4655 134.507 21.278C134.559 21.0869 134.616 20.8777 134.678 20.6504C134.739 20.423 134.798 20.2007 134.853 19.9833C134.924 19.7624 134.983 19.5613 135.029 19.3802L134.94 19.3227C134.769 19.4799 134.56 19.6622 134.315 19.8699C134.076 20.0675 133.84 20.2602 133.607 20.448C133.381 20.6257 133.195 20.7733 133.049 20.8906L130.521 22.8288Z" fill="#BF8C4E"/>
<path d="M135.869 33.3512L144.184 24.4741L146.112 26.2801L139.337 33.5137L143.814 37.7074L142.275 39.3508L135.869 33.3512Z" fill="#BF8C4E"/>
<path d="M142.416 40.6196L151.846 32.9377L157.983 40.4707L156.306 41.8369L151.849 36.3659L149.746 38.0792L153.688 42.9179L152.024 44.2728L148.083 39.4341L145.787 41.3042L150.311 46.8577L148.62 48.2351L142.416 40.6196Z" fill="#BF8C4E"/>
<path d="M157.345 60.1116C157.166 59.6741 157.1 59.2477 157.147 58.8325C157.205 58.4127 157.363 58.035 157.621 57.6991C157.884 57.3743 158.234 57.1222 158.672 56.9429C159.12 56.7591 159.552 56.6907 159.967 56.7377C160.387 56.7956 160.765 56.9538 161.101 57.2122C161.436 57.4705 161.694 57.8185 161.873 58.256C162.057 58.7044 162.12 59.1385 162.062 59.5582C162.004 59.9779 161.846 60.3557 161.588 60.6915C161.329 61.0274 160.976 61.2872 160.527 61.4709C160.09 61.6502 159.661 61.7109 159.242 61.653C158.822 61.5951 158.444 61.4369 158.108 61.1785C157.783 60.9157 157.529 60.56 157.345 60.1116Z" fill="#BF8C4E"/>
</svg>
