<svg width="81" height="81" viewBox="0 0 81 81" fill="none" xmlns="http://www.w3.org/2000/svg">
<path d="M35.3235 1.76633C38.7592 0.199514 42.7056 0.199513 46.1414 1.76633C47.8754 2.55708 49.7617 2.95803 51.6674 2.94092C55.4434 2.90702 59.0486 4.51215 61.5501 7.34097C62.8125 8.76863 64.3726 9.90213 66.1206 10.6616C69.5839 12.1665 72.2245 15.0992 73.3592 18.7009C73.9318 20.5186 74.896 22.1887 76.1839 23.5935C78.7357 26.3769 79.9552 30.1302 79.5268 33.8819C79.3106 35.7754 79.5122 37.6933 80.1173 39.5004C81.3164 43.0812 80.9039 47.0059 78.9866 50.2591C78.0189 51.901 77.423 53.735 77.2408 55.6321C76.8798 59.3909 74.9066 62.8086 71.8318 65.0007C70.28 66.107 68.9896 67.5401 68.0516 69.199C66.1929 72.4861 63.0003 74.8057 59.2997 75.5576C57.4321 75.9371 55.6704 76.7215 54.1387 77.8555C51.1037 80.1024 47.2436 80.9229 43.5571 80.1046C41.6966 79.6917 39.7682 79.6917 37.9077 80.1046C34.2212 80.9229 30.3611 80.1024 27.3262 77.8555C25.7945 76.7215 24.0328 75.9371 22.1651 75.5576C18.4646 74.8057 15.2719 72.4861 13.4132 69.199C12.4752 67.5401 11.1848 66.107 9.63303 65.0007C6.55824 62.8086 4.58505 59.3909 4.22406 55.6321C4.04188 53.735 3.44596 51.901 2.47829 50.2591C0.560918 47.0059 0.14841 43.0812 1.34751 39.5004C1.95267 37.6933 2.15425 35.7754 1.93803 33.8819C1.50962 30.1302 2.72911 26.3769 5.28096 23.5935C6.56884 22.1887 7.53306 20.5186 8.10568 18.7009C9.2403 15.0992 11.8809 12.1665 15.3443 10.6616C17.0922 9.90213 18.6523 8.76863 19.9148 7.34096C22.4163 4.51215 26.0214 2.90702 29.7975 2.94092C31.7032 2.95803 33.5895 2.55708 35.3235 1.76633Z" fill="#BF8C4E"/>
</svg>
