<svg width="24" height="24" viewBox="0 0 24 24" fill="none" xmlns="http://www.w3.org/2000/svg">
<path d="M22 5.896C21.2528 6.22435 20.4573 6.44022 19.6417 6.536C20.5069 6.02399 21.1494 5.22814 21.45 4.296C20.6583 4.76 19.7833 5.096 18.8417 5.272C18.4617 4.87088 17.9984 4.55051 17.4817 4.33144C16.9652 4.11239 16.4065 3.99949 15.8417 4C15.2133 4.00617 14.5947 4.14895 14.0321 4.41761C13.4695 4.68627 12.9777 5.07384 12.5935 5.55118C12.2093 6.02853 11.9429 6.58324 11.8141 7.17365C11.6853 7.76406 11.6976 8.3748 11.85 8.96C10.2083 8.87396 8.60461 8.45267 7.14601 7.72426C5.68742 6.99586 4.40747 5.9771 3.39167 4.736C2.86174 5.62598 2.69871 6.67438 2.93476 7.67414C3.17082 8.6739 3.7888 9.55235 4.66667 10.136C4.01304 10.1131 3.37512 9.93737 2.80833 9.624V9.68C2.80833 11.632 4.225 13.264 6.1 13.64C5.49684 13.7987 4.86349 13.8206 4.25 13.704C4.775 15.312 6.29167 16.48 8.08333 16.512C7.23875 17.1698 6.26485 17.6574 5.21969 17.9461C4.17454 18.2347 3.07954 18.3184 2 18.192C3.86707 19.3741 6.05511 20.0029 8.29167 20C15.8417 20 19.9583 13.84 19.9583 8.504V7.984C20.7583 7.416 21.45 6.704 22 5.896Z" fill="#888888"/>
</svg>
