<svg width="24" height="24" viewBox="0 0 24 24" fill="none" xmlns="http://www.w3.org/2000/svg">
<path d="M12.0333 5.00823C12.525 5.00823 18.3167 5.02468 19.8167 5.41951C20.2425 5.53535 20.6299 5.75976 20.94 6.07019C21.2501 6.38062 21.472 6.76614 21.5833 7.18802C22 8.75089 22 12 22 12V12.0329C22 12.3866 21.975 15.3478 21.5833 16.8038C21.4732 17.2272 21.2519 17.6144 20.9417 17.9264C20.6316 18.2383 20.2435 18.4639 19.8167 18.5805C18.35 18.9753 12.775 18.9918 12.0667 19H11.925C11.2167 19 5.64167 18.9753 4.18333 18.5887C3.75552 18.4715 3.36673 18.2446 3.05646 17.9311C2.74618 17.6176 2.52545 17.2287 2.41667 16.8038C2.06667 15.4794 2.00833 12.9377 2 12.1974V11.7861C2.00833 11.0458 2.06667 8.50412 2.41667 7.17979C2.52931 6.75943 2.75176 6.37561 3.06178 6.06671C3.37181 5.7578 3.75854 5.53464 4.18333 5.41951C5.68333 5.01645 11.475 5 11.9667 5L12.0333 5.00823ZM9.95 9.03879V14.9448L15.1833 12L9.95 9.04701V9.03879Z" fill="#888888"/>
</svg>
